<svg xmlns="http://www.w3.org/2000/svg" xmlns:xlink="http://www.w3.org/1999/xlink" fill="none" version="1.1" width="141" height="22.968658447265625" viewBox="0 0 141 22.968658447265625"><g transform="matrix(1,0,0,-1,0,45.93731689453125)"><g><g><g><path d="M14.158982348632813,24.75611802734375C14.061982348632812,24.73187802734375,4.449642348632812,22.24676102734375,2.3010223486328125,27.25987802734375C0.1076683486328125,32.37926802734375,4.527002348632813,37.85287802734375,4.570822348632813,37.906978027343754C4.746992348632813,38.12137802734375,4.716232348632812,38.43827802734375,4.502772348632813,38.613478027343746C4.288372348632812,38.789678027343754,3.9723723486328124,38.75887802734375,3.7971323486328123,38.54547802734375C3.5967223486328126,38.30217802734375,-1.0584576513671875,32.54984802734375,1.3772613486328125,26.86371802734375C2.6720223486328125,23.84354002734375,6.036162348632812,23.10247802734375,9.023712348632813,23.10247802734375C11.776382348632813,23.10247802734375,14.210182348632813,23.72981702734375,14.416182348632812,23.78481402734375C14.683782348632812,23.85565802734375,14.843182348632812,24.13157802734375,14.773282348632813,24.39910802734375C14.701482348632812,24.667558027343752,14.427382348632813,24.82695802734375,14.158982348632813,24.75611802734375Z" fill="#6A3A07" fill-opacity="1" style="mix-blend-mode:passthrough"/></g></g><g><g><path d="M11.390887352539062,35.46311659667969C11.125223352539063,35.54794659667969,10.842781352539063,35.40159659667969,10.758887352539062,35.13592659667969C10.690840352539063,34.91966659667969,10.114769352539062,32.99850659667969,11.048786352539063,32.06448459667969C11.145730352539063,31.967540696679688,11.274367352539063,31.918136596679688,11.403937352539062,31.918136596679688C11.531641352539062,31.918136596679688,11.660281352539062,31.967540696679688,11.759091352539063,32.06448459667969C11.953911352539063,32.26116859667969,11.953911352539063,32.579033596679686,11.759091352539063,32.77571759667969C11.361990352539063,33.171886596679684,11.559611352539063,34.33148659667969,11.717141352539063,34.831116596679685C11.800101352539063,35.09491659667969,11.654691352539063,35.37735659667969,11.390887352539062,35.46311659667969Z" fill="#6A3A07" fill-opacity="1" style="mix-blend-mode:passthrough"/></g></g><g><g><path d="M4.354277694335938,31.252947483398437C4.380377994335937,30.99380848339844,4.600365694335937,30.801785137398436,4.852979694335938,30.801785137398436C4.870690694335938,30.801785137398436,4.8874696943359375,30.803649443398438,4.905180694335938,30.805513753398436C5.182961694335938,30.833478383398436,5.381511694335938,31.079566483398438,5.353541694335938,31.35548448339844C5.304141694335938,31.83275048339844,5.3283816943359374,32.08256048339844,5.353541694335938,32.203740483398434C5.630391694335938,32.06112048339844,6.161721694335937,31.54284648339844,6.574671694335938,31.00033348339844C6.7433816943359375,30.780345583398436,7.057521694335938,30.73560228339844,7.2793716943359374,30.90338948339844C7.499361694335938,31.07210948339844,7.543171694335937,31.38717748339844,7.374451694335937,31.60809748339844C6.999731694335937,32.102140483398436,6.396621694335938,32.79939048339844,5.790721694335938,33.097680483398435C5.801911694335938,33.151740483398434,5.806571694335938,33.209540483398435,5.798181694335938,33.268260483398436C5.610821694335938,34.67022048339844,6.031221694335938,35.34696048339844,6.048931694335938,35.37306048339844C6.203671694335938,35.59771048339844,6.151471694335937,35.90719048339844,5.927751694335937,36.06752048339844C5.701241694335938,36.22878048339844,5.388031694335938,36.175650483398435,5.226772694335938,35.950070483398434C5.156861694335937,35.854060483398435,4.560283694335937,34.954530483398436,4.801711694335937,33.13590048339844C4.801711694335937,33.12937048339844,4.805439694335938,33.123780483398434,4.807304694335937,33.11912048339844C4.201404694335937,32.73693048339844,4.310466534335937,31.671484483398437,4.354277694335938,31.252947483398437Z" fill="#6A3A07" fill-opacity="1" style="mix-blend-mode:passthrough"/></g></g><g><g><path d="M11.734257924804687,28.006778701171875C11.669007924804689,27.737391701171877,11.834937924804688,27.465202701171876,12.104327924804688,27.399951701171876C12.142547924804688,27.391562701171875,12.183557924804688,27.385969701171874,12.222707924804688,27.385969701171874C12.449227924804687,27.385969701171874,12.655227924804688,27.541638701171873,12.710227924804688,27.770948701171875C12.824877924804687,28.243548701171875,12.747507924804687,28.681658701171877,12.487437924804688,29.035878701171875C11.926287924804686,29.797448701171874,10.716347924804687,29.898118701171875,10.581187924804688,29.908378701171877C10.316457924804688,29.929818701171875,10.063847924804687,29.716348701171874,10.046127924804686,29.439498701171875C10.028417924804687,29.161718701171875,10.237227924804689,28.923088701171874,10.514077924804688,28.905378701171877C10.586777924804688,28.899788701171875,10.683727924804687,28.887668701171876,10.791857924804688,28.867158701171874C8.083947924804688,27.779337701171876,6.686647924804687,27.899585701171876,5.981947924804688,28.220248701171876C5.443157924804687,28.466338701171875,5.3163869248046876,28.839198701171874,5.3070649248046875,28.869028701171874C5.235289924804688,29.130958701171874,4.9668289248046875,29.290358701171876,4.700233924804688,29.223248701171876C4.430840924804688,29.156128701171873,4.2677142248046875,28.882078701171874,4.334829324804687,28.613618701171873C4.356268624804687,28.531588701171874,4.566003924804687,27.792388701171873,5.502817924804687,27.336565701171875C5.976347924804688,27.106323701171874,6.541237924804688,26.991668701171875,7.1946779248046875,26.991668701171875C8.411137924804688,26.991668701171875,9.937067924804687,27.391562701171875,11.755697924804688,28.182028701171873C11.754767924804687,28.131688701171875,11.750107924804688,28.074828701171874,11.734257924804687,28.006778701171875Z" fill="#6A3A07" fill-opacity="1" style="mix-blend-mode:passthrough"/></g></g><g><g><path d="M18.81084319824219,26.36191900390625C19.874433198242187,26.30412900390625,20.765573198242187,26.92120900390625,21.199023198242188,28.005309003906248C21.657643198242187,29.14998900390625,21.53552319824219,30.80921900390625,20.419743198242188,31.76653900390625C19.785873198242186,32.31091900390625,19.14455319824219,32.545819003906246,18.51721319824219,32.46938900390625C18.358753198242187,32.44980900390625,18.214263198242186,32.41065900390625,18.082833198242188,32.36218900390625L18.082833198242188,33.20205900390625C18.082833198242188,33.47983900390625,17.859115198242186,33.70448900390625,17.58133419824219,33.70448900390625C17.303552198242187,33.70448900390625,17.078903198242188,33.47983900390625,17.078903198242188,33.20205900390625L17.078903198242188,31.38622900390625C17.078903198242188,31.16623900390625,17.219658198242186,30.97234900390625,17.429393198242188,30.90709900390625C17.637263198242188,30.83997900390625,17.862844198242186,30.91641900390625,17.99054919824219,31.094459003906252C17.992413198242186,31.09725900390625,18.23943319824219,31.42257900390625,18.640263198242188,31.47197900390625C18.97583319824219,31.51485900390625,19.355223198242186,31.35545900390625,19.765373198242187,31.00403900390625C20.514823198242187,30.36178900390625,20.582863198242187,29.17142900390625,20.266863198242188,28.37816900390625C20.10747319824219,27.98013900390625,19.708503198242187,27.32016900390625,18.86304319824219,27.36491900390625C18.163933198242187,27.40126900390625,17.690396198242187,27.22135900390625,17.445239198242188,26.82799900390625C17.226183198242186,26.47656900390625,17.247623198242188,26.02727900390625,17.507694198242188,25.55933900390625C17.89267319824219,24.86581200390625,18.831353198242187,24.12847900390625,19.81291319824219,24.12847900390625C20.09162319824219,24.12847900390625,20.31534319824219,24.35406000390625,20.31534319824219,24.63091000390625C20.31534319824219,24.90775900390625,20.09162319824219,25.13426900390625,19.81291319824219,25.13426900390625C19.31048319824219,25.13426900390625,18.787543198242187,25.50992900390625,18.513483198242188,25.85855900390625C18.328923198242187,26.09065900390625,18.290703198242188,26.264039003906248,18.29256319824219,26.29200900390625C18.29443319824219,26.29200900390625,18.398833198242187,26.38335900390625,18.81084319824219,26.36191900390625Z" fill="#6A3A07" fill-opacity="1" style="mix-blend-mode:passthrough"/></g></g><g><g><path d="M23.06444000488281,26.01598287109375C22.85097000488281,25.97590387109375,22.243210004882812,26.339442871093752,21.778996004882814,26.78035287109375C21.578583004882812,26.97051287109375,21.259787004882813,26.96492287109375,21.068695004882812,26.76357287109375C20.877604104882813,26.56316287109375,20.885061204882813,26.24529287109375,21.085474004882812,26.05420287109375C21.35579900488281,25.79506587109375,22.243210004882812,25.01019287109375,23.043000004882813,25.01019287109375C23.11664000488281,25.01019287109375,23.190280004882812,25.01765011109375,23.261120004882812,25.03070017109375C23.532380004882814,25.08569727109375,23.708550004882813,25.35042887109375,23.654490004882813,25.62261787109375C23.601360004882814,25.89387387109375,23.333830004882813,26.07191287109375,23.06444000488281,26.01598287109375Z" fill="#6A3A07" fill-opacity="1" style="mix-blend-mode:passthrough"/></g></g><g><g><path d="M24.701379721679686,28.317194778320314C24.053539721679687,28.597767778320314,23.631269721679686,28.996737778320313,23.44483972167969,29.50568777832031C23.11299272167969,30.415467778320313,23.607029721679687,31.429657778320312,23.61169972167969,31.43990777832031C23.73659972167969,31.685997778320314,23.636859721679688,31.988017778320312,23.38890972167969,32.11198777832031C23.14188972167969,32.23782777832031,22.838939721679687,32.13902777832031,22.71403172167969,31.891067778320313C22.686066721679687,31.834207778320312,22.020509721679687,30.49190777832031,22.49870372167969,29.16917777832031C22.780214721679688,28.388037778320314,23.38890972167969,27.791459778320313,24.302419721679687,27.39529467832031C24.368599721679686,27.366397878320313,24.43571972167969,27.353347778320312,24.50189972167969,27.353347778320312C24.695789721679688,27.353347778320312,24.881289721679686,27.467070778320313,24.96331972167969,27.65629777832031C25.07423972167969,27.910775778320314,24.955859721679687,28.206267778320314,24.701379721679686,28.317194778320314Z" fill="#6A3A07" fill-opacity="1" style="mix-blend-mode:passthrough"/></g></g><g><g><path d="M21.9633,37.35474316894531C21.8989,37.25873316894531,21.8178,37.174843168945316,21.7228,37.102133168945315C21.6249,37.026623168945314,21.5186,36.96324316894531,21.404,36.90824316894531C21.2874,36.85324316894531,21.1663,36.808503168945315,21.0386,36.77308316894531C20.909,36.737653168945315,20.7813,36.712493168945315,20.6536,36.69571316894531C20.5249,36.67800316894531,20.4019,36.672403168945316,20.2807,36.672403168945316C20.1605,36.67427316894531,20.0495,36.683593168945315,19.9498,36.70410316894531C19.9023,36.712493168945315,19.8584,36.724603168945315,19.823,36.740453168945315C19.7857,36.756303168945315,19.755,36.78333316894531,19.7279,36.82062316894531C19.6944,36.856973168945316,19.6804,36.89053316894531,19.686,36.922223168945315C19.6907,36.95391316894531,19.6981,36.98468316894531,19.7074,37.01264316894531C19.7261,37.06391316894531,19.7457,37.114243168945315,19.769,37.16272316894531C19.7895,37.21212316894531,19.8109,37.26059316894531,19.8314,37.31279316894531C19.864,37.395763168945315,19.8678,37.44329316894531,19.8407,37.45541316894531C19.8146,37.46753316894531,19.7634,37.46194316894531,19.6851,37.43770316894531C19.5257,37.38270316894531,19.3709,37.323053168945314,19.2218,37.255003168945315C19.0726,37.186953168945315,18.9319,37.10492316894531,18.7986,37.00705316894531C18.7678,36.985613168945314,18.7445,36.96883316894531,18.7259,36.958573168945314C18.7082,36.946463168945314,18.6914,36.943663168945314,18.6755,36.94553316894531C18.6597,36.948323168945315,18.642,36.958573168945314,18.6206,36.97629316894531C18.6019,36.993073168945315,18.5749,37.02010316894531,18.5422,37.05365316894531C18.5273,37.06670316894531,18.5152,37.07882316894531,18.504,37.088143168945315C18.4928,37.099333168945314,18.4826,37.11052316894531,18.4714,37.125433168945314C18.4304,37.16831316894531,18.4183,37.213993168945315,18.4341,37.26246316894531C18.4481,37.296013168945315,18.4658,37.32678316894531,18.4826,37.35940316894531C18.4323,37.32864316894531,18.3819,37.296013168945315,18.3344,37.26898316894531C18.271,37.23263316894531,18.2132,37.200943168945315,18.1619,37.174843168945316C18.1097,37.145943168945315,18.0706,37.12730316894531,18.0417,37.11331316894531C18.0109,37.099333168945314,17.9792,37.09281316894531,17.9438,37.09374316894531C17.9102,37.096533168945314,17.8776,37.103993168945316,17.8487,37.11891316894531C17.8198,37.13475316894531,17.7909,37.153393168945314,17.7648,37.17950316894531C17.7387,37.20653316894531,17.7182,37.23636316894531,17.7033,37.272713168945316C17.694,37.29322316894531,17.6884,37.31559316894531,17.6875,37.34169316894531C17.6875,37.36779316894531,17.6875,37.39389316894531,17.6903,37.41813316894531C17.6996,37.46753316894531,17.721,37.519733168945315,17.7518,37.57286316894531C17.749,37.571933168945314,17.7462,37.570073168945314,17.7425,37.56914316894531C17.6837,37.54024316894531,17.6287,37.515073168945314,17.5737,37.490833168945315C17.5169,37.46660316894531,17.4703,37.451683168945316,17.4302,37.44423316894531C17.3435,37.42931316894531,17.2699,37.45355316894531,17.2074,37.51880316894531C17.1515,37.576593168945315,17.1403,37.639983168945314,17.1729,37.70616316894531C17.2055,37.77234316894531,17.2391,37.83387316894531,17.2736,37.89259316894531C17.3081,37.951323168945315,17.3435,38.008183168945315,17.3789,38.06504316894531C17.2549,38.04267316894531,17.1347,38.01284316894531,17.0219,37.974623168945314C16.9073,37.935473168945315,16.7963,37.89259316894531,16.6891,37.844123168945316C16.581,37.79658316894531,16.4738,37.745313168945316,16.3685,37.68938316894531C16.2631,37.63532316894531,16.1569,37.58219316894531,16.0534,37.530923168945314C16.0292,37.51880316894531,16.0021,37.50575316894531,15.9732,37.490833168945315C15.9453,37.47685316894531,15.9192,37.47965316894531,15.8931,37.49736316894531C15.8623,37.52066316894531,15.8334,37.54676316894531,15.8045,37.576593168945315C15.7756,37.60735316894531,15.7505,37.63811316894531,15.7281,37.66981316894531C15.716,37.68286316894531,15.715,37.70243316894531,15.7244,37.73226316894531C15.7327,37.761163168945316,15.7458,37.79192316894531,15.7626,37.82268316894531C15.7775,37.854373168945315,15.7971,37.883273168945315,15.8148,37.909373168945315C15.8343,37.935473168945315,15.8474,37.953183168945316,15.8549,37.961573168945314C15.935,38.05665316894531,16.0152,38.150803168945316,16.0972,38.242153168945315C16.1783,38.336303168945314,16.265,38.425783168945316,16.3554,38.51247316894531C16.4924,38.644843168945314,16.6323,38.772553168945315,16.7777,38.894663168945314C16.9222,39.01770316894531,17.0695,39.13142316894531,17.2195,39.23862316894531C17.3705,39.34489316894531,17.5262,39.44370316894531,17.6837,39.533183168945314C17.8431,39.62453316894531,18.0072,39.70283316894531,18.1759,39.769953168945314C18.2691,39.790463168945315,18.34,39.78673316894531,18.3856,39.75783316894531C18.4341,39.72893316894531,18.4789,39.66834316894531,18.518,39.575133168945314C18.5208,39.54996316894531,18.5078,39.53505316894531,18.4807,39.52945316894531C18.4509,39.52386316894531,18.4285,39.51827316894531,18.4127,39.51454316894531C18.2235,39.466073168945314,18.0352,39.386833168945316,17.845,39.27684316894531C17.6539,39.16498316894531,17.4684,39.04194316894531,17.2894,38.90118316894531C17.1095,38.76136316894531,16.9371,38.61501316894531,16.7749,38.45934316894531C16.6108,38.30460316894531,16.4626,38.15732316894531,16.3321,38.018433168945315C16.2883,37.974623168945314,16.2697,37.946663168945314,16.2734,37.92988316894531C16.2771,37.91683316894531,16.3116,37.922423168945315,16.3741,37.953183168945316C16.4449,37.98301316894531,16.5204,38.01377316894531,16.5978,38.04360316894531C16.6761,38.073433168945314,16.7553,38.10140316894531,16.8345,38.12750316894531C16.9147,38.15360316894531,16.9958,38.17597316894531,17.0732,38.19461316894531C17.1533,38.21232316894531,17.2261,38.22537316894531,17.2932,38.23003316894531C17.3239,38.231903168945315,17.3519,38.23003316894531,17.3789,38.22351316894531C17.4041,38.217913168945316,17.4302,38.20393316894531,17.4544,38.18156316894531C17.501,38.12936316894531,17.5299,38.08555316894531,17.542,38.044533168945314C17.5542,38.00445316894531,17.5542,37.96530316894531,17.543,37.92801316894531C17.5299,37.891663168945314,17.5113,37.854373168945315,17.4824,37.81802316894531C17.4544,37.78073316894531,17.4246,37.74158316894531,17.3938,37.69777316894531C17.3845,37.681933168945314,17.3733,37.66328316894531,17.364,37.646503168945316C17.3556,37.63066316894531,17.3426,37.60829316894531,17.3277,37.58219316894531C17.3715,37.58591316894531,17.4227,37.600833168945314,17.4805,37.62227316894531C17.5411,37.644643168945315,17.6008,37.670743168945314,17.6632,37.698703168945315C17.7248,37.72667316894531,17.7835,37.75463316894531,17.8394,37.78073316894531C17.8832,37.802173168945316,17.9196,37.81429316894531,17.9541,37.826413168945315C17.9886,37.86183316894531,18.024,37.89819316894531,18.0603,37.93174316894531C18.1163,37.980223168945315,18.1638,38.018433168945315,18.2067,38.044533168945314C18.2542,38.07436316894531,18.3073,38.078093168945315,18.3605,38.057583168945314C18.4127,38.03521316894531,18.449,37.99699316894531,18.4714,37.93920316894531C18.4789,37.91124316894531,18.4733,37.886073168945316,18.4584,37.862763168945314C18.422,37.81243316894531,18.3819,37.76396316894531,18.3362,37.71642316894531C18.2906,37.668883168945314,18.244,37.621343168945316,18.1955,37.57286316894531C18.1479,37.52719316894531,18.1013,37.47965316894531,18.0585,37.43024316894531C18.0147,37.38270316894531,17.9774,37.33237316894531,17.9466,37.279243168945314C18.0072,37.28483316894531,18.0669,37.29974316894531,18.1293,37.323053168945314C18.1908,37.34449316894531,18.2514,37.37432316894531,18.312,37.407873168945315C18.3735,37.44143316894531,18.436,37.478723168945315,18.4966,37.517873168945314C18.5404,37.54676316894531,18.5842,37.57286316894531,18.6261,37.602693168945315C18.6513,37.636253168945316,18.6737,37.673543168945315,18.7016,37.70616316894531C18.8135,37.83853316894531,18.9533,37.93920316894531,19.1174,38.006323168945315C19.1537,38.02403316894531,19.1873,38.02776316894531,19.219,38.016573168945314C19.2498,38.006323168945315,19.2777,37.98860316894531,19.3038,37.96530316894531C19.3299,37.942933168945316,19.3532,37.91590316894531,19.3765,37.886073168945316C19.398,37.85810316894531,19.4175,37.83387316894531,19.4362,37.811503168945315C19.3765,37.785403168945315,19.3141,37.74997316894531,19.2516,37.704303168945316C19.1873,37.659553168945315,19.1258,37.61015316894531,19.0671,37.55981316894531C19.0065,37.50855316894531,18.9533,37.45728316894531,18.9021,37.40508316894531C18.8517,37.35288316894531,18.8098,37.30907316894531,18.779,37.27178316894531C18.8517,37.30440316894531,18.931,37.33983316894531,19.0186,37.37618316894531C19.1053,37.41440316894531,19.191,37.44889316894531,19.2796,37.480583168945316C19.3663,37.51227316894531,19.4511,37.53931316894531,19.5313,37.56447316894531C19.6114,37.58871316894531,19.6823,37.605493168945316,19.7429,37.615743168945315C19.782,37.621343168945316,19.8174,37.613883168945314,19.8491,37.59710316894531C19.8827,37.57846316894531,19.9144,37.55422316894531,19.9461,37.51880316894531C20.0151,37.43770316894531,20.0393,37.35660316894531,20.0151,37.27551316894531C20.0039,37.240093168945315,19.9927,37.208393168945314,19.9787,37.17856316894531C19.9647,37.147803168945316,19.9517,37.11797316894531,19.9414,37.088143168945315C19.9293,37.060183168945315,19.919,37.029423168945314,19.9097,36.99959316894531C19.9004,36.97163316894531,19.8948,36.94180316894531,19.8948,36.91010316894531C20.002,36.90358316894531,20.1185,36.906373168945315,20.2406,36.91663316894531C20.3627,36.92968316894531,20.4867,36.95019316894531,20.6126,36.98095316894531C20.7384,37.01078316894531,20.8624,37.05179316894531,20.9836,37.099333168945314C21.1057,37.147803168945316,21.2166,37.204663168945316,21.3219,37.26898316894531C21.4282,37.33423316894531,21.5186,37.40694316894531,21.6025,37.48804316894531C21.6827,37.56820316894531,21.747,37.65862316894531,21.7936,37.75743316894531C21.8067,37.785403168945315,21.8253,37.80404316894531,21.8458,37.811503168945315C21.8663,37.81895316894531,21.8989,37.803113168945316,21.9418,37.761163168945316C21.9977,37.67633316894531,22.0266,37.602693168945315,22.0257,37.53837316894531C22.0238,37.474063168945314,22.0052,37.413473168945316,21.9633,37.35474316894531ZM14.8425,37.761163168945316C14.6645,37.72853316894531,14.4892,37.711753168945314,14.3187,37.709893168945314C14.1471,37.70616316894531,13.9961,37.72201316894531,13.8666,37.75463316894531C13.8265,37.76302316894531,13.7883,37.78167316894531,13.7519,37.80963316894531C13.7137,37.84039316894531,13.6848,37.87488316894531,13.6634,37.91403316894531C13.6401,37.953183168945316,13.6289,37.993273168945315,13.627,38.034283168945315C13.6233,38.076233168945315,13.6354,38.112583168945314,13.6634,38.14427316894531C13.6951,38.18156316894531,13.7342,38.214193168945314,13.7827,38.24308316894531C13.8302,38.27198316894531,13.8815,38.297153168945314,13.9383,38.31859316894531C13.9943,38.34003316894531,14.0549,38.358673168945316,14.1145,38.37545316894531C14.176,38.39036316894531,14.2385,38.40528316894531,14.3,38.41740316894531C14.3075,38.39689316894531,14.3131,38.380113168945314,14.3205,38.36240316894531C14.3252,38.34655316894531,14.3317,38.327913168945315,14.3382,38.307403168945314C14.2972,38.297153168945314,14.245,38.281303168945314,14.1779,38.26266316894531C14.1127,38.242153168945315,14.0474,38.21978316894531,13.9812,38.189953168945316C13.9169,38.161993168945315,13.86,38.12936316894531,13.8134,38.09301316894531C13.7668,38.05572316894531,13.7417,38.01191316894531,13.7398,37.96344316894531C13.8833,37.91310316894531,14.0427,37.883273168945315,14.2152,37.87768316894531C14.3904,37.870223168945316,14.5648,37.88234316894531,14.7409,37.91310316894531C14.9171,37.942933168945316,15.0886,37.98674316894531,15.2536,38.04640316894531C15.4186,38.10606316894531,15.564,38.174103168945315,15.6908,38.252403168945314C15.7439,38.28876316894531,15.7952,38.33164316894531,15.8427,38.38104316894531C15.8017,38.41273316894531,15.7486,38.43790316894531,15.6843,38.45934316894531C15.62,38.478923168945315,15.5584,38.49663316894531,15.4997,38.506883168945315C15.3058,38.546033168945314,15.1194,38.58332316894531,14.9395,38.61781316894531C14.7586,38.65416316894531,14.5787,38.68772316894531,14.3988,38.722213168945316C14.3364,38.73619316894531,14.2804,38.753903168945314,14.2329,38.772553168945315C14.1835,38.790263168945316,14.1416,38.81449316894531,14.1052,38.84339316894531C14.0688,38.87229316894531,14.0381,38.907713168945314,14.0111,38.95059316894531C13.984,38.992533168945315,13.9635,39.045673168945314,13.9449,39.10905316894531C13.9365,39.15846316894531,13.9467,39.200403168945314,13.9728,39.23862316894531C13.9961,39.277773168945316,14.0269,39.30853316894531,14.0614,39.33557316894531C14.1835,39.42319316894531,14.3271,39.496833168945315,14.4874,39.55555316894531C14.6486,39.616143168945314,14.8183,39.66368316894531,14.9973,39.700043168945314C15.1762,39.73639316894531,15.3561,39.76249316894531,15.5389,39.777413168945316C15.7234,39.79419316894531,15.8977,39.800713168945315,16.0618,39.802573168945315C16.2286,39.802573168945315,16.3778,39.797913168945314,16.512,39.785803168945314C16.6481,39.774613168945315,16.7562,39.76063316894531,16.8383,39.741993168945314C16.9352,39.71868316894531,17.0079,39.671143168945314,17.0536,39.59750316894531C17.075,39.562083168945314,17.0946,39.51827316894531,17.1095,39.46980316894531C17.1244,39.418533168945316,17.131,39.371923168945315,17.1291,39.33184316894531C17.1244,39.28803316894531,17.0993,39.24981316894531,17.0545,39.219053168945315C16.9567,39.156593168945314,16.8457,39.104393168945315,16.718,39.06151316894531C16.5913,39.018633168945314,16.4626,38.98414316894531,16.3321,38.956183168945316C16.2007,38.928223168945316,16.0758,38.90584316894531,15.9546,38.891863168945314C15.8343,38.87788316894531,15.7309,38.86763316894531,15.6479,38.86017316894531C15.6162,38.85830316894531,15.5938,38.85830316894531,15.5771,38.85830316894531C15.5603,38.86017316894531,15.5444,38.86483316894531,15.5314,38.87415316894531C15.5193,38.881613168945314,15.5072,38.89559316894531,15.496,38.91330316894531C15.4857,38.93194316894531,15.4727,38.95898316894531,15.4578,38.98974316894531C15.578,39.018633168945314,15.6982,39.045673168945314,15.8185,39.07083316894531C15.9406,39.09693316894531,16.0599,39.12490316894531,16.1802,39.15846316894531C16.3004,39.19108316894531,16.4169,39.226503168945314,16.5335,39.268453168945314C16.649,39.30947316894531,16.7637,39.361673168945316,16.8765,39.42319316894531C16.6509,39.46234316894531,16.4216,39.48285316894531,16.1867,39.485643168945316C15.9509,39.48844316894531,15.7178,39.47259316894531,15.4848,39.43904316894531C15.2508,39.40548316894531,15.0243,39.35514316894531,14.8006,39.286163168945315C14.5806,39.219053168945315,14.3709,39.135153168945315,14.1751,39.03821316894531C14.286,38.98508316894531,14.4044,38.94220316894531,14.5247,38.909573168945315C14.6458,38.87695316894531,14.7698,38.84898316894531,14.8975,38.823813168945314C15.0234,38.798653168945314,15.1464,38.77348316894531,15.2723,38.748313168945316C15.3953,38.72314316894531,15.5165,38.69331316894531,15.633,38.656033168945314C15.7197,38.62620316894531,15.7933,38.58612316894531,15.8549,38.53485316894531C15.9192,38.48265316894531,15.9537,38.41273316894531,15.9611,38.32138316894531C15.9611,38.275713168945316,15.9425,38.23563316894531,15.908,38.19741316894531C15.8754,38.159193168945315,15.8343,38.12563316894531,15.7877,38.09580316894531C15.6675,38.02030316894531,15.5258,37.953183168945316,15.3599,37.894463168945315C15.193,37.83853316894531,15.0206,37.79378316894531,14.8425,37.761163168945316ZM18.6494,38.518073168945314C18.6811,38.52832316894531,18.7156,38.51900316894531,18.7501,38.49010316894531C18.7837,38.46214316894531,18.8079,38.436973168945315,18.8266,38.41460316894531C18.8443,38.39223316894531,18.8536,38.37172316894531,18.8555,38.35308316894531C18.8573,38.33350316894531,18.8499,38.31299316894531,18.8368,38.29249316894531C18.8228,38.270113168945315,18.8005,38.24774316894531,18.7734,38.22164316894531C18.7576,38.20766316894531,18.7455,38.19741316894531,18.7371,38.189953168945316C18.7296,38.182493168945314,18.7222,38.175043168945315,18.7166,38.16665316894531C18.71,38.159193168945315,18.7016,38.150803168945316,18.6914,38.14427316894531C18.6821,38.134953168945316,18.6709,38.12377316894531,18.6588,38.11072316894531C18.6317,38.08368316894531,18.6122,38.06970316894531,18.5991,38.06970316894531C18.5861,38.06877316894531,18.5628,38.08368316894531,18.5292,38.11351316894531C18.5059,38.13216316894531,18.4854,38.150803168945316,18.4658,38.17037316894531C18.4462,38.189953168945316,18.4425,38.218853168945316,18.4546,38.257063168945315C18.4639,38.28689316894531,18.4789,38.32232316894531,18.4966,38.35960316894531C18.5152,38.397823168945315,18.5385,38.43138316894531,18.5628,38.461213168945314C18.5898,38.489173168945314,18.6168,38.50781316894531,18.6494,38.518073168945314ZM19.0316,45.20437316894531C12.8365,47.32407316894531,1.72807,44.310473168945315,0.611349,42.91507316894531C-0.505371,41.51960316894531,0.163916,41.574603168945316,0.611349,41.12903316894531Q1.05692,40.681603168945315,22.1012,33.20200016894531C26.7349,30.577993168945312,25.2286,43.08287316894531,19.0316,45.20437316894531Z" fill="#6A3A07" fill-opacity="1" style="mix-blend-mode:passthrough"/></g></g><g><g><path d="M40.5345384765625,24.621368447265624C40.4375384765625,24.595268447265624,30.8251884765625,22.112009447265624,28.6765784765625,27.125128447265624C26.4832224765625,32.24451844726563,30.9025584765625,37.717158447265625,30.9463684765625,37.772158447265625C31.1225484765625,37.98655844726562,31.0936484765625,38.302558447265625,30.8783284765625,38.478758447265626C30.6639284765625,38.65585844726563,30.3488584765625,38.62415844726563,30.1726884765625,38.41075844726562C29.9722684765625,38.168358447265625,25.3161684765625,32.41509844726563,27.7537474765625,26.729898447265626C29.0475784765625,23.707855447265626,32.4117184765625,22.968658447265625,35.3992684765625,22.968658447265625C38.1519384765625,22.968658447265625,40.5867384765625,23.595997447265624,40.7917384765625,23.650062447265626C41.0602384765625,23.721838447265625,41.2196384765625,23.996828447265624,41.1488384765625,24.265288447265625C41.0779384765625,24.533748447265626,40.8048384765625,24.692208447265624,40.5345384765625,24.621368447265624Z" fill="#6A3A07" fill-opacity="1" style="mix-blend-mode:passthrough"/></g></g><g><g><path d="M37.76695015136719,35.327466748046874C37.50035515136719,35.412286748046874,37.219776151367185,35.265936748046876,37.13401815136719,35.00027674804687C37.06597115136719,34.78494674804688,36.490833151367184,32.86378674804688,37.42391815136719,31.930696748046874C37.52179415136719,31.831888748046875,37.65043115136719,31.783416748046875,37.779068151367184,31.783416748046875C37.90771015136719,31.783416748046875,38.03727015136719,31.831888748046875,38.13422015136719,31.930696748046874C38.329970151367185,32.126448748046876,38.329970151367185,32.44431374804687,38.13422015136719,32.64099774804688C37.738986151367186,33.03716674804687,37.93474015136719,34.19675674804687,38.094140151367185,34.69639674804687C38.17523015136719,34.96112674804687,38.02982015136719,35.243566748046874,37.76695015136719,35.327466748046874Z" fill="#6A3A07" fill-opacity="1" style="mix-blend-mode:passthrough"/></g></g><g><g><path d="M30.729425856835938,31.117307411132813C30.756458256835938,30.86003341113281,30.975514256835936,30.66707753413281,31.229060256835936,30.66707753413281C31.246771256835938,30.66707753413281,31.262617256835938,30.66800967113281,31.28219325683594,30.669873981132813C31.55811025683594,30.698770711132813,31.756658256835937,30.944859411132814,31.728698256835937,31.220776411132814C31.680222256835936,31.69803641113281,31.703528256835938,31.94692641113281,31.728698256835937,32.069036411132814C32.00554825683594,31.926416411132813,32.538738256835934,31.409071411132814,32.950748256835936,30.865626411132812C33.11853825683594,30.643773711132813,33.43266825683594,30.601826811132813,33.654518256835935,30.769614411132814C33.875438256835935,30.937402411132812,33.91925825683594,31.25246941113281,33.751468256835935,31.474322411132814C33.374878256835935,31.967426411132813,32.77177825683594,32.66374641113281,32.16587825683594,32.962036411132814C32.177058256835934,33.01796641113281,32.18264825683594,33.07482641113281,32.17332825683594,33.133556411132815C31.98596825683594,34.53551641113281,32.40636825683594,35.21225641113281,32.42407825683594,35.237426411132816C32.57881825683594,35.46300641113281,32.52661825683594,35.772476411132814,32.30289825683594,35.93187641113281C32.07638825683594,36.093146411132814,31.76318825683594,36.04093641113281,31.601921256835936,35.81535641113281C31.53201025683594,35.71934641113281,30.936364256835937,34.82075641113281,31.176859256835936,33.001186411132814C31.176859256835936,32.995596411132816,31.182452256835937,32.99000641113281,31.182452256835937,32.982546411132816C30.57655225683594,32.601296411132815,30.687478926835936,31.53491241113281,30.729425856835938,31.117307411132813Z" fill="#6A3A07" fill-opacity="1" style="mix-blend-mode:passthrough"/></g></g><g><g><path d="M38.109249477539066,27.872098583984375C38.04399947753906,27.602703583984376,38.20991947753906,27.331446583984373,38.47930947753906,27.266195583984373C38.51845947753906,27.255942583984375,38.559479477539064,27.252213583984375,38.59768947753906,27.252213583984375C38.824209477539064,27.252213583984375,39.03020947753906,27.405086583984374,39.08706947753906,27.635328583984375C39.19986947753906,28.108858583984375,39.122499477539066,28.546038583984377,38.86335947753906,28.900258583984375C38.301269477539066,29.662758583984374,37.09226947753906,29.763438583984374,36.95709947753906,29.771828583984373C36.69143947753906,29.794198583984375,36.43882947753906,29.581668583984374,36.42204947753906,29.303878583984375C36.40433947753906,29.027028583984375,36.61220947753906,28.787468583984374,36.889059477539064,28.770688583984374C36.961769477539065,28.766028583984376,37.05870947753906,28.752978583984376,37.166839477539064,28.730608583984374C34.458929477539066,27.644650583984376,33.06163947753906,27.765830583984375,32.35878947753906,28.085558583984376C31.820009477539063,28.331648583984375,31.691369477539062,28.704508583984374,31.682048477539063,28.733408583984374C31.612136477539064,28.997208583984374,31.341811477539064,29.156598583984376,31.075216477539062,29.089488583984377C30.807688477539063,29.020508583984373,30.642696877539063,28.748318583984375,30.70981197753906,28.478928583984374C30.731251277539062,28.396898583984374,30.941918477539062,27.656768583984373,31.877799477539064,27.200013583984376C32.35132947753906,26.970703583984374,32.91621947753906,26.856048583984375,33.56965947753906,26.856048583984375C34.78611947753906,26.856048583984375,36.31204947753906,27.256874583984374,38.13161947753906,28.047338583984374C38.13161947753906,27.997008583984375,38.12695947753906,27.940138583984375,38.109249477539066,27.872098583984375Z" fill="#6A3A07" fill-opacity="1" style="mix-blend-mode:passthrough"/></g></g><g><g><path d="M45.18698682128906,26.22713812011719C46.250576821289066,26.16934812011719,47.14078682128906,26.786428120117186,47.57609682128906,27.870528120117186C48.03285682128906,29.015208120117187,47.91260682128906,30.674438120117188,46.79495682128906,31.631758120117187C46.16108682128906,32.17520812011719,45.51976682128906,32.41103812011718,44.892426821289064,32.33460812011719C44.73582682128906,32.31409812011719,44.58947682128906,32.27680812011719,44.45990682128906,32.22740812011719L44.45990682128906,33.06727812011719C44.45990682128906,33.34505812011719,44.23432882128906,33.569708120117184,43.956547821289064,33.569708120117184C43.67969782128906,33.569708120117184,43.45411682128906,33.34505812011719,43.45411682128906,33.06727812011719L43.45411682128906,31.25050812011719C43.45411682128906,31.031458120117186,43.596735821289066,30.837568120117187,43.80553882128906,30.771388120117187C44.01247682128906,30.70519812011719,44.240853821289065,30.781638120117186,44.36576282128906,30.95967812011719C44.367626821289065,30.963408120117187,44.61557682128906,31.287798120117188,45.01547682128906,31.33626812011719C45.35104682128906,31.380078120117187,45.731366821289065,31.22067812011719,46.14151682128906,30.868328120117187C46.891896821289066,30.226078120117187,46.95901682128906,29.03664812011719,46.64207682128906,28.24338812011719C46.48361682128906,27.846288120117187,46.08371682128906,27.18538812011719,45.23825682128906,27.23013812011719C44.54100682128906,27.265558120117188,44.066541821289064,27.085648120117188,43.821384821289065,26.694148120117188C43.60232882128906,26.342728120117187,43.62283682128906,25.89249812011719,43.88290682128906,25.425488120117187C44.26788682128906,24.731963120117186,45.206566821289066,23.993698120117188,46.18998682128906,23.993698120117188C46.466836821289064,23.993698120117188,46.690556821289064,24.218347120117187,46.690556821289064,24.497061120117188C46.690556821289064,24.772978120117187,46.466836821289064,24.99855812011719,46.18998682128906,24.99855812011719C45.68662682128906,24.99855812011719,45.162756821289065,25.373288120117188,44.88869682128906,25.72283812011719C44.705066821289066,25.954948120117187,44.66591682128906,26.12832812011719,44.669646821289064,26.15629812011719C44.669646821289064,26.15722812011719,44.77404682128906,26.248578120117187,45.18698682128906,26.22713812011719Z" fill="#6A3A07" fill-opacity="1" style="mix-blend-mode:passthrough"/></g></g><g><g><path d="M48.339271655273436,37.22004909667969C48.27497165527343,37.124969096679685,48.19297165527344,37.04107909667969,48.09787165527344,36.96742909667969C48.00087165527344,36.89192909667969,47.89377165527344,36.82760909667969,47.77907165527344,36.77354909667969C47.66257165527344,36.71854909667969,47.54137165527344,36.67380909667969,47.414571655273434,36.638379096679685C47.28597165527344,36.60295909667969,47.15637165527344,36.57778909667969,47.029571655273436,36.561019096679686C46.90097165527344,36.54423909667969,46.77697165527344,36.53677909667969,46.65677165527344,36.537709096679684C46.535571655273436,36.53957909667969,46.42557165527344,36.54889909667969,46.32487165527344,36.569409096679685C46.27737165527344,36.57872909667969,46.235471655273436,36.58990909667969,46.19817165527344,36.60668909667969C46.16087165527344,36.620669096679684,46.13007165527344,36.64863909667969,46.10307165527344,36.68591909667969C46.06947165527344,36.722279096679685,46.05737165527344,36.75676909667969,46.06297165527344,36.78845909667969C46.067671655273436,36.820149096679685,46.07507165527343,36.84997909667969,46.08347165527344,36.87887909667969C46.10117165527343,36.92921909667969,46.122671655273436,36.97954909667969,46.144071655273436,37.02802909667969C46.164571655273434,37.07742909667969,46.185971655273434,37.126829096679685,46.20747165527344,37.17809909667969C46.23917165527344,37.26012909667969,46.24287165527343,37.308599096679686,46.21587165527344,37.32071909667969C46.191571655273435,37.33376909667969,46.138471655273435,37.32817909667969,46.06107165527344,37.303939096679684C45.90267165527344,37.24894909667969,45.74697165527344,37.18741909667969,45.59877165527344,37.12030909667969C45.44777165527344,37.05225909667969,45.306971655273436,36.96929909667969,45.17367165527344,36.87235909667969C45.14297165527344,36.85091909667969,45.119671655273436,36.834139096679685,45.10197165527344,36.822949096679686C45.083271655273435,36.81269909667969,45.06647165527344,36.808039096679686,45.051571655273435,36.81176909667969C45.035771655273436,36.81362909667969,45.01807165527344,36.822949096679686,44.99757165527343,36.841589096679684C44.977971655273436,36.85836909667969,44.94997165527344,36.883539096679684,44.91737165527344,36.918959096679686C44.90247165527344,36.932009096679685,44.89037165527344,36.943199096679685,44.87917165527344,36.95437909667969C44.86887165527344,36.96556909667969,44.857671655273435,36.975819096679686,44.84647165527343,36.991669096679686C44.80647165527344,37.03268909667969,44.79337165527343,37.07928909667969,44.809271655273434,37.12869909667969C44.82317165527344,37.16225909667969,44.84277165527344,37.19301909667969,44.857671655273435,37.22470909667969C44.80737165527344,37.19394909667969,44.75797165527344,37.16225909667969,44.70947165527343,37.13428909667969C44.647071655273436,37.09793909667969,44.589271655273436,37.06717909667969,44.53707165527344,37.04013909667969C44.48577165527344,37.01217909667969,44.445671655273436,36.99259909667969,44.416771655273436,36.97861909667969C44.38607165527344,36.96463909667969,44.35437165527344,36.958109096679685,44.31987165527344,36.95997909667969C44.28627165527344,36.96183909667969,44.25457165527344,36.96836909667969,44.22567165527344,36.984209096679685C44.194971655273434,36.99912909667969,44.16697165527344,37.01963909667969,44.13997165527344,37.04479909667969C44.11387165527344,37.07183909667969,44.09427165527344,37.10259909667969,44.078371655273436,37.138019096679685C44.07007165527344,37.158529096679686,44.06447165527344,37.181829096679685,44.06257165527344,37.20699909667969C44.06257165527344,37.23309909667969,44.06447165527344,37.25732909667969,44.06817165527344,37.28342909667969C44.074671655273434,37.332839096679685,44.09617165527344,37.38503909667969,44.12687165527343,37.43909909667969C44.12507165527344,37.43723909667969,44.12127165527344,37.43537909667969,44.11757165527344,37.433509096679686C44.058871655273435,37.405549096679685,44.00477165527344,37.379449096679686,43.94977165527344,37.356139096679684C43.89287165527344,37.33190909667969,43.84727165527344,37.31605909667969,43.807171655273436,37.309539096679686C43.72047165527344,37.293689096679685,43.646871655273436,37.31885909667969,43.584371655273436,37.38503909667969C43.526571655273436,37.44282909667969,43.51537165527344,37.50528909667969,43.548971655273434,37.57239909667969C43.581571655273436,37.636719096679684,43.61417165527344,37.699179096679686,43.65057165527344,37.75789909667969C43.68507165527343,37.81755909667969,43.718571655273436,37.87348909667969,43.754071655273435,37.93034909667969C43.63007165527344,37.908909096679686,43.51167165527344,37.87907909667969,43.39697165527343,37.83992909667969C43.28237165527344,37.80170909667969,43.17327165527344,37.75789909667969,43.06427165527344,37.709429096679685C42.95707165527344,37.66188909667969,42.84987165527343,37.610619096679685,42.74357165527344,37.555619096679685C42.63827165527344,37.501559096679685,42.53387165527344,37.44842909667969,42.42847165527344,37.39715909667969C42.405171655273435,37.38410909667969,42.378171655273434,37.37105909667969,42.350171655273435,37.356139096679684C42.32037165527343,37.34215909667969,42.294271655273434,37.34401909667969,42.269071655273436,37.363599096679685C42.237371655273435,37.386899096679684,42.20947165527344,37.412999096679684,42.17967165527344,37.44282909667969C42.152571655273434,37.472659096679685,42.126471655273434,37.503419096679686,42.10407165527344,37.535119096679686C42.09107165527344,37.547229096679686,42.09107165527344,37.568669096679685,42.100371655273435,37.597569096679685C42.107871655273435,37.62739909667969,42.12087165527344,37.657229096679686,42.13767165527344,37.68891909667969C42.15447165527344,37.719679096679684,42.17217165527344,37.74764909667969,42.19177165527344,37.77560909667969C42.211271655273435,37.80077909667969,42.22247165527344,37.818489096679684,42.22997165527344,37.82687909667969C42.31197165527344,37.92102909667969,42.39127165527344,38.01517909667969,42.47227165527344,38.10838909667969C42.55337165527344,38.202539096679686,42.64007165527344,38.292029096679684,42.73147165527344,38.378709096679685C42.86757165527344,38.51107909667969,43.00927165527344,38.63784909667969,43.15377165527344,38.75902909667969C43.297271655273434,38.881149096679685,43.444571655273435,38.99579909667969,43.59467165527344,39.103929096679686C43.74657165527344,39.21019909667969,43.90127165527343,39.30806909667969,44.058871655273435,39.39848909667969C44.21827165527344,39.48890909667969,44.38227165527344,39.56813909667969,44.551971655273434,39.63431909667969C44.64517165527344,39.65482909667969,44.715071655273434,39.65203909667969,44.76357165527344,39.62313909667969C44.809271655273434,39.594239096679686,44.85397165527344,39.532719096679685,44.894071655273436,39.441369096679686C44.89587165527344,39.41619909667969,44.88287165527343,39.400359096679686,44.85587165527343,39.394759096679685C44.825971655273435,39.38916909667969,44.804571655273435,39.384509096679686,44.78777165527344,39.38077909667969C44.59857165527344,39.33230909667969,44.410271655273434,39.25027909667969,44.220071655273436,39.14121909667969C44.02897165527344,39.03028909667969,43.84537165527344,38.906309096679685,43.664571655273434,38.766489096679685C43.48557165527344,38.626669096679684,43.31217165527344,38.47938909667969,43.14997165527343,38.324649096679686C42.98597165527344,38.16990909667969,42.83867165527344,38.02262909667969,42.70727165527344,37.88466909667969C42.665271655273436,37.83992909667969,42.64567165527344,37.810099096679686,42.64947165527344,37.79611909667969C42.65407165527344,37.782139096679686,42.687671655273434,37.78865909667969,42.749171655273436,37.818489096679684C42.819971655273434,37.849249096679685,42.89647165527344,37.87907909667969,42.97287165527344,37.908909096679686C43.051171655273436,37.93873909667969,43.130371655273436,37.96763909667969,43.20967165527344,37.99279909667969C43.29167165527343,38.017969096679685,43.37087165527343,38.04127909667969,43.45017165527344,38.05898909667969C43.528471655273435,38.07855909667969,43.602071655273434,38.09160909667969,43.668271655273436,38.09533909667969C43.69907165527344,38.09719909667969,43.72697165527344,38.094409096679684,43.754071655273435,38.08974909667969C43.780171655273435,38.083219096679684,43.807171655273436,38.06737909667969,43.82957165527344,38.04593909667969C43.87797165527344,37.99559909667969,43.90507165527344,37.950859096679686,43.91807165527344,37.91076909667969C43.92927165527344,37.86975909667969,43.93117165527344,37.83153909667969,43.91807165527344,37.79425909667969C43.90507165527344,37.75696909667969,43.886371655273436,37.719679096679684,43.857471655273436,37.683329096679685C43.82957165527344,37.64603909667969,43.801571655273435,37.60595909667969,43.769871655273434,37.56307909667969C43.759671655273436,37.545369096679686,43.75027165527344,37.529519096679685,43.739071655273435,37.511809096679684C43.730771655273436,37.49502909667969,43.718571655273436,37.47358909667969,43.70277165527344,37.44748909667969C43.74657165527344,37.45214909667969,43.79787165527344,37.465209096679686,43.85567165527344,37.48663909667969C43.916271655273434,37.51087909667969,43.97587165527344,37.53604909667969,44.03837165527344,37.56307909667969C44.09987165527343,37.59104909667969,44.16047165527344,37.61993909667969,44.21447165527344,37.64603909667969C44.258371655273436,37.66654909667969,44.295571655273434,37.67959909667969,44.32917165527344,37.69171909667969C44.363671655273436,37.727139096679686,44.39997165527343,37.764429096679685,44.43637165527343,37.79611909667969C44.49137165527344,37.84551909667969,44.54077165527344,37.88373909667969,44.58177165527344,37.91076909667969C44.631171655273434,37.93966909667969,44.68247165527344,37.94432909667969,44.73557165527344,37.92288909667969C44.78777165527344,37.901449096679684,44.82417165527344,37.862299096679685,44.84837165527344,37.80450909667969C44.85397165527344,37.77560909667969,44.85027165527344,37.74950909667969,44.83347165527344,37.728999096679686C44.798971655273434,37.67773909667969,44.75797165527344,37.62925909667969,44.71137165527344,37.58078909667969C44.66657165527344,37.534179096679686,44.61907165527344,37.485709096679685,44.57157165527344,37.43816909667969C44.52307165527344,37.392499096679686,44.47647165527344,37.34401909667969,44.43357165527344,37.29647909667969C44.389771655273435,37.247079096679684,44.35247165527343,37.19860909667969,44.321671655273434,37.14453909667969C44.38227165527344,37.15013909667969,44.441971655273434,37.164119096679684,44.50437165527344,37.18741909667969C44.56597165527344,37.209789096679685,44.62837165527344,37.238689096679686,44.68807165527343,37.27410909667969C44.74867165527344,37.30766909667969,44.81107165527344,37.34401909667969,44.87257165527343,37.38317909667969C44.91737165527344,37.41206909667969,44.95927165527344,37.43909909667969,45.00127165527344,37.46706909667969C45.02637165527344,37.501559096679685,45.04977165527344,37.538849096679684,45.077671655273434,37.57239909667969C45.19047165527344,37.704769096679684,45.32847165527343,37.80450909667969,45.492471655273434,37.87161909667969C45.528871655273434,37.89026909667969,45.56237165527344,37.893059096679686,45.595071655273436,37.88187909667969C45.62487165527344,37.87068909667969,45.65287165527344,37.85483909667969,45.678971655273436,37.83060909667969C45.70597165527344,37.80636909667969,45.729271655273436,37.78026909667969,45.75167165527344,37.751379096679685C45.77307165527344,37.722479096679685,45.79267165527344,37.69730909667969,45.81127165527344,37.67586909667969C45.75167165527344,37.65163909667969,45.68917165527344,37.615279096679686,45.62677165527344,37.57053909667969C45.56237165527344,37.52392909667969,45.50087165527344,37.47638909667969,45.44307165527344,37.42511909667969C45.38347165527344,37.37291909667969,45.32847165527343,37.321649096679685,45.277171655273435,37.27037909667969C45.22687165527344,37.21817909667969,45.18487165527344,37.17436909667969,45.15507165527344,37.138019096679685C45.22687165527344,37.168779096679685,45.306971655273436,37.20419909667969,45.39367165527344,37.241489096679686C45.48037165527344,37.27876909667969,45.56797165527344,37.31419909667969,45.65467165527343,37.345889096679684C45.74137165527344,37.376649096679685,45.82617165527344,37.40367909667969,45.90727165527343,37.42977909667969C45.98837165527344,37.45401909667969,46.059271655273434,37.47172909667969,46.11887165527344,37.48104909667969C46.15717165527344,37.485709096679685,46.19347165527344,37.48011909667969,46.22607165527344,37.462409096679686C46.258771655273435,37.444699096679685,46.29037165527343,37.418599096679685,46.32207165527343,37.38503909667969C46.390171655273434,37.303939096679684,46.41437165527344,37.22190909667969,46.390171655273434,37.139879096679685C46.37987165527343,37.10632909667969,46.36867165527344,37.074629096679686,46.353771655273434,37.04479909667969C46.34077165527344,37.01403909667969,46.32677165527343,36.984209096679685,46.31647165527344,36.95437909667969C46.30437165527344,36.92455909667969,46.29417165527344,36.89472909667969,46.284871655273434,36.86582909667969C46.275471655273435,36.83692909667969,46.269871655273434,36.80710909667969,46.269871655273434,36.77540909667969C46.37807165527344,36.768889096679686,46.49457165527343,36.77074909667969,46.615771655273434,36.78286909667969C46.73787165527344,36.79311909667969,46.86187165527343,36.815489096679684,46.98957165527344,36.84625909667969C47.115371655273435,36.87701909667969,47.23747165527344,36.91522909667969,47.35957165527344,36.96556909667969C47.480771655273436,37.01217909667969,47.592671655273435,37.069969096679685,47.697971655273435,37.13428909667969C47.803271655273434,37.199539096679686,47.89377165527344,37.27224909667969,47.97757165527344,37.353349096679686C48.058671655273436,37.433509096679686,48.12207165527344,37.52206909667969,48.16967165527343,37.621809096679684C48.18177165527344,37.65163909667969,48.200371655273436,37.66840909667969,48.22087165527344,37.67773909667969C48.24237165527344,37.685189096679686,48.27497165527343,37.66654909667969,48.31687165527344,37.626469096679685C48.37467165527344,37.54163909667969,48.40267165527344,37.46706909667969,48.40077165527344,37.402749096679685C48.40077165527344,37.339359096679686,48.38027165527343,37.27876909667969,48.339271655273436,37.22004909667969ZM41.21947165527344,37.62739909667969C41.039571655273434,37.594769096679684,40.86437165527344,37.57705909667969,40.69377165527344,37.573329096679686C40.522271655273435,37.57239909667969,40.37127165527344,37.587319096679686,40.24257165527344,37.61993909667969C40.20347165527344,37.628329096679686,40.165271655273436,37.64696909667969,40.12797165527344,37.67586909667969C40.08877165527343,37.70569909667969,40.06177165527344,37.740189096679686,40.03847165527344,37.77840909667969C40.01707165527344,37.818489096679684,40.00397165527344,37.85856909667969,40.00207165527344,37.89958909667969C40.00027165527344,37.94153909667969,40.01147165527344,37.97788909667969,40.03847165527344,38.00957909667969C40.07017165527344,38.046869096679686,40.11117165527344,38.07948909667969,40.15867165527344,38.10838909667969C40.20537165527344,38.13728909667969,40.25657165527344,38.16338909667969,40.31347165527344,38.18389909667969C40.36937165527344,38.20626909667969,40.429971655273434,38.223979096679685,40.491471655273436,38.23981909667969C40.55207165527344,38.256599096679686,40.61357165527344,38.270589096679686,40.67517165527344,38.283639096679686C40.682571655273435,38.26219909667969,40.690071655273435,38.24447909667969,40.695671655273436,38.228639096679686C40.70127165527344,38.21185909667969,40.706771655273435,38.193219096679684,40.714271655273436,38.173639096679686C40.67327165527344,38.16245909667969,40.62107165527344,38.14753909667969,40.55297165527344,38.127969096679685C40.487771655273434,38.10838909667969,40.42347165527344,38.08414909667969,40.357271655273436,38.05525909667969C40.29297165527343,38.02728909667969,40.236971655273436,37.99466909667969,40.188571655273435,37.95737909667969C40.14197165527344,37.920099096679685,40.11867165527344,37.87721909667969,40.11677165527344,37.82967909667969C40.25847165527344,37.77840909667969,40.41787165527344,37.74764909667969,40.59027165527344,37.742989096679686C40.76557165527343,37.73645909667969,40.939871655273436,37.74671909667969,41.11697165527344,37.777479096679684C41.29317165527344,37.808239096679685,41.464671655273435,37.85297909667969,41.628671655273436,37.91170909667969C41.79467165527344,37.97135909667969,41.93917165527344,38.03940909667969,42.06687165527344,38.11770909667969C42.11907165527344,38.154069096679684,42.17027165527344,38.196939096679685,42.218771655273436,38.24634909667969C42.17777165527344,38.276179096679684,42.12467165527344,38.30227909667969,42.06127165527344,38.324649096679686C41.995071655273435,38.34515909667969,41.93357165527344,38.36099909667969,41.874771655273435,38.37311909667969C41.68187165527344,38.41133909667969,41.494471655273436,38.44768909667969,41.31457165527344,38.48311909667969C41.134671655273436,38.51853909667969,40.95387165527344,38.55395909667969,40.773971655273435,38.58658909667969C40.71237165527344,38.60149909667969,40.65837165527344,38.618279096679686,40.60797165527344,38.63784909667969C40.55857165527344,38.65555909667969,40.51857165527343,38.67886909667969,40.48127165527344,38.70869909667969C40.44397165527344,38.73665909667969,40.414171655273435,38.77301909667969,40.386171655273436,38.81682909667969C40.359171655273435,38.85876909667969,40.33857165527344,38.910969096679686,40.319971655273434,38.97528909667969C40.31347165527344,39.022829096679686,40.32187165527344,39.06663909667969,40.34797165527344,39.103929096679686C40.37127165527344,39.14121909667969,40.401971655273435,39.173839096679686,40.43647165527344,39.20086909667969C40.55857165527344,39.288499096679686,40.70217165527344,39.362139096679684,40.86247165527344,39.42178909667969C41.02467165527344,39.48144909667969,41.194371655273436,39.528059096679684,41.37237165527344,39.56534909667969C41.551371655273435,39.600769096679684,41.733071655273434,39.62593909667969,41.91487165527344,39.64270909667969C42.09857165527344,39.657629096679685,42.272871655273434,39.66694909667969,42.436871655273436,39.66694909667969C42.603771655273434,39.667879096679684,42.75287165527344,39.66321909667969,42.88897165527344,39.65109909667969C43.02327165527343,39.64084909667969,43.13227165527344,39.62499909667969,43.213371655273434,39.60635909667969C43.31217165527344,39.58398909667969,43.38307165527344,39.53644909667969,43.42867165527343,39.46187909667969C43.45017165527344,39.426459096679686,43.46977165527343,39.384509096679686,43.48557165527344,39.335099096679684C43.49957165527344,39.283839096679685,43.50607165527344,39.23815909667969,43.50417165527344,39.19620909667969C43.49957165527344,39.153329096679684,43.47717165527344,39.11604909667969,43.43057165527344,39.08434909667969C43.333671655273434,39.020969096679686,43.22087165527344,38.96783909667969,43.09317165527344,38.92681909667969C42.966371655273434,38.88393909667969,42.83867165527344,38.84851909667969,42.70727165527344,38.821489096679684C42.57577165527344,38.79351909667969,42.45087165527344,38.77207909667969,42.32967165527344,38.758099096679686C42.20947165527344,38.74411909667969,42.105971655273436,38.73292909667969,42.02297165527344,38.725479096679685C41.993171655273436,38.724539096679685,41.96987165527344,38.72360909667969,41.95307165527343,38.724539096679685C41.935371655273435,38.725479096679685,41.91957165527344,38.729199096679686,41.90837165527344,38.738529096679684C41.89527165527344,38.74784909667969,41.882271655273435,38.75996909667969,41.87197165527344,38.779539096679684C41.86177165527344,38.79817909667969,41.84967165527344,38.823349096679685,41.83377165527344,38.854109096679686C41.95307165527343,38.883009096679686,42.073371655273434,38.91003909667969,42.19547165527344,38.93613909667969C42.315671655273434,38.961309096679685,42.435971655273434,38.990209096679685,42.55527165527344,39.022829096679686C42.67557165527344,39.055459096679684,42.793871655273435,39.09180909667969,42.91047165527344,39.134689096679686C43.025071655273436,39.17476909667969,43.139771655273435,39.226039096679685,43.25257165527344,39.28942909667969C43.02697165527344,39.32857909667969,42.79767165527343,39.34908909667969,42.56277165527344,39.350949096679685C42.32787165527344,39.353749096679685,42.09297165527344,39.337899096679685,41.85987165527344,39.30527909667969C41.62687165527343,39.27171909667969,41.39937165527344,39.22044909667969,41.17847165527344,39.15146909667969C40.955671655273434,39.08434909667969,40.745971655273436,39.00045909667969,40.55017165527344,38.90257909667969C40.661171655273435,38.849449096679685,40.779571655273436,38.80750909667969,40.90167165527344,38.77580909667969C41.02277165527344,38.742249096679686,41.14677165527344,38.714289096679686,41.27267165527344,38.68911909667969C41.39937165527344,38.66488909667969,41.522471655273435,38.63878909667969,41.64737165527344,38.613619096679685C41.77137165527344,38.58844909667969,41.89157165527344,38.556759096679684,42.00807165527344,38.521329096679686C42.09477165527343,38.491509096679685,42.168471655273436,38.45048909667969,42.23187165527344,38.400149096679684C42.294271655273434,38.348889096679684,42.32967165527344,38.276179096679684,42.336271655273435,38.18575909667969C42.336271655273435,38.14194909667969,42.31947165527344,38.09999909667969,42.28307165527344,38.062719096679686C42.25047165527344,38.02449909667969,42.20947165527344,37.99093909667969,42.162871655273435,37.961109096679685C42.04357165527344,37.88560909667969,41.90277165527344,37.81941909667969,41.73497165527344,37.76069909667969C41.56907165527344,37.70289909667969,41.39567165527344,37.659089096679686,41.21947165527344,37.62739909667969ZM45.024571655273434,38.38337909667969C45.056271655273434,38.39362909667969,45.09077165527344,38.38337909667969,45.12527165527344,38.355409096679686C45.15877165527344,38.327449096679686,45.182971655273434,38.30227909667969,45.203571655273436,38.27990909667969C45.220271655273436,38.25846909667969,45.22867165527344,38.23795909667969,45.23057165527344,38.21744909667969C45.232471655273436,38.19880909667969,45.22587165527344,38.17922909667969,45.21187165527344,38.157789096679686C45.197971655273435,38.13634909667969,45.17557165527344,38.112119096679685,45.148571655273436,38.086019096679685C45.13267165527344,38.072969096679685,45.12147165527344,38.062719096679686,45.11217165527344,38.05525909667969C45.10567165527344,38.048729096679686,45.09817165527343,38.03940909667969,45.09257165527344,38.03288909667969C45.08517165527344,38.02449909667969,45.077671655273434,38.016109096679685,45.06647165527344,38.00864909667969C45.057171655273436,38.00118909667969,45.04787165527344,37.98813909667969,45.03387165527344,37.976959096679686C45.00867165527344,37.948059096679685,44.98727165527344,37.935009096679686,44.97607165527344,37.93407909667969C44.96117165527343,37.93407909667969,44.93787165527344,37.948059096679685,44.90617165527344,37.978819096679686C44.88287165527343,37.99745909667969,44.861471655273434,38.016109096679685,44.84087165527344,38.03567909667969C44.82137165527344,38.05525909667969,44.81857165527344,38.08414909667969,44.82977165527343,38.12330909667969C44.839071655273436,38.15219909667969,44.85397165527344,38.186689096679686,44.87257165527343,38.22490909667969C44.89037165527344,38.26405909667969,44.91367165527343,38.296689096679685,44.93787165527344,38.32557909667969C44.96487165527344,38.35447909667969,44.99287165527343,38.37311909667969,45.024571655273434,38.38337909667969ZM45.40677165527344,45.06879909667968C39.212571655273436,47.189399096679686,28.10318165527344,44.17579909667969,26.988320655273437,42.780299096679684C25.870668655273438,41.384909096679685,26.540887655273437,41.44083909667969,26.988320655273437,40.99433909667969Q27.433891655273438,40.54783909667969,48.47817165527344,33.06730509667969C53.11187165527343,30.44328909667969,51.604671655273435,42.94909909667969,45.40677165527344,45.06879909667968Z" fill="#6A3A07" fill-opacity="1" style="mix-blend-mode:passthrough"/></g></g><g><g><path d="M47.722926887695316,25.062850952148438C47.55327488769531,25.062850952148438,47.38641988769531,25.14021965214844,47.278289887695315,25.28563595214844C47.09651998769531,25.530791952148437,47.147788387695314,25.87662095214844,47.392944887695315,26.058390952148436C50.582769887695314,28.425130952148436,49.374699887695314,31.44251095214844,49.322499887695315,31.568350952148435C49.205979887695314,31.848930952148436,49.335549887695315,32.17332095214844,49.61705988769531,32.29170095214844C49.89763988769531,32.40915095214844,50.22109988769531,32.28051095214844,50.33947988769531,31.999000952148435C50.35718988769531,31.960790952148436,51.95583988769531,28.068110952148437,48.05197688769531,25.170980952148437C47.952236887695314,25.09827275214844,47.83571788769531,25.062850952148438,47.722926887695316,25.062850952148438Z" fill="#6A3A07" fill-opacity="1" style="mix-blend-mode:passthrough"/></g></g><g><g><path d="M51.03661032714844,27.32501220703125C50.126829327148435,27.32501220703125,49.50228732714844,27.92065820703125,49.474322327148435,27.94769020703125C49.271112827148436,28.14530720703125,49.26645212714844,28.46969220703125,49.46313632714844,28.67197220703125C49.65982032714844,28.87425220703125,49.98234532714844,28.88077220703125,50.185555327148435,28.68689220703125C50.19674132714844,28.67663220703125,50.591040327148434,28.31962020703125,51.107450327148435,28.35318220703125C51.50642032714844,28.37928220703125,51.90351032714844,28.63282220703125,52.289420327148434,29.10542220703125C52.46747032714844,29.32541220703125,52.790920327148434,29.35990220703125,53.00998032714844,29.17906220703125C53.23090032714844,29.00009220703125,53.26259032714844,28.67663220703125,53.08362032714844,28.45758220703125C52.504750327148436,27.74914220703125,51.85784032714844,27.36882340703125,51.15872032714844,27.32780866703125C51.11584032714844,27.32594436003125,51.07669032714844,27.32501220703125,51.03661032714844,27.32501220703125Z" fill="#6A3A07" fill-opacity="1" style="mix-blend-mode:passthrough"/></g></g><g><g><path d="M50.52132865722656,23.813034057617188C50.26311865722656,23.813034057617188,50.04033865722656,24.007854057617187,50.01237865722656,24.270721057617187C49.82966865722656,25.954194057617187,49.00098765722656,26.213324057617186,48.96649765722656,26.22451405761719C48.69896965722656,26.300954057617187,48.534910957226565,26.579664057617187,48.60575465722656,26.848124057617188C48.676598257226566,27.11658405761719,48.93946565722656,27.28157405761719,49.21165465722656,27.220054057617187C49.273176657226564,27.206074057617187,50.76461865722656,26.833214057617187,51.03307865722656,24.381648057617188C51.062908657226565,24.101069057617188,50.85969865722656,23.846591557617188,50.57818865722656,23.815830517617187C50.559548657226564,23.81396621061719,50.54090865722656,23.813034057617188,50.52132865722656,23.813034057617188Z" fill="#6A3A07" fill-opacity="1" style="mix-blend-mode:passthrough"/></g></g><g><g><path d="M52.20542166503906,25.28961181640625C52.092631665039065,25.28961181640625,51.97704166503906,25.32689791640625,51.88102866503906,25.40333481640625L51.145559665039066,26.00084481640625C50.925571665039065,26.17981781640625,50.892014165039065,26.50234181640625,51.069123665039065,26.72233181640625C51.248096665039064,26.94232181640625,51.57155366503906,26.97681181640625,51.792474665039066,26.79690181640625L52.527941665039066,26.20125781640625C52.74793166503906,26.02228481640625,52.78242166503906,25.69975881640625,52.604381665039064,25.47977081640625C52.50277166503906,25.35393041640625,52.354561665039064,25.28961181640625,52.20542166503906,25.28961181640625Z" fill="#6A3A07" fill-opacity="1" style="mix-blend-mode:passthrough"/></g></g></g><g><g><path d="M65.19454,42.71945117062377C66.94963,42.71945117062377,67.80404,41.83715117062377,67.80404,40.047651170623766L67.80404,35.13485117062377L69.87313,35.13485117062377L69.87313,42.85505117062377L72.438,42.85505117062377L72.438,24.968951170623768L69.87313,24.968951170623768L69.87313,32.66672117062377L67.80404,32.66672117062377L67.80404,24.968951170623768L65.23998,24.968951170623768L65.23998,32.05636117062377L62.0677579,32.05636117062377L62.0677579,34.52443117062377L65.23998,34.52443117062377L65.23998,39.02905117062377C65.23998,39.93295117062377,64.81113,40.250551170623766,63.95754,40.250551170623766L62,40.250551170623766L62,42.71945117062377L65.19454,42.71945117062377Z" fill="#E73C1A" fill-opacity="1" style="mix-blend-mode:passthrough"/></g><g><path d="M86.20510029144288,24.96930551994592L83.64019029144288,24.96930551994592L83.64019029144288,42.85540551994592L86.20510029144288,42.85540551994592L86.20510029144288,24.96930551994592ZM78.86986029144288,40.25090551994592L77.67913029144287,40.25090551994592L77.67913029144287,27.43823551994592L78.86986029144288,27.43823551994592L78.86986029144288,40.25090551994592ZM82.40319029144287,24.96930551994592L74.25903459144287,24.96930551994592L74.25903459144287,27.43820551994592L75.15888329144288,27.43820551994592L75.15888329144288,40.25090551994592L74.21440029144287,40.25090551994592L74.21440029144287,42.71980551994592L82.38087029144287,42.71980551994592L82.38087029144287,40.25090551994592L81.39095029144288,40.25090551994592L81.39095029144288,27.43820551994592L82.40319029144287,27.43820551994592L82.40319029144287,24.96930551994592Z" fill="#E73C1A" fill-opacity="1" style="mix-blend-mode:passthrough"/></g><g><path d="M89.10500471789551,28.524322748184204C88.83562571789551,28.524322748184204,88.69845771789551,28.659035748184206,88.69845771789551,29.044880748184205L88.69845771789551,30.787002748184204C88.69845771789551,31.105492748184204,88.8116627178955,31.308392748184204,89.10500471789551,31.308392748184204L91.10633771789551,31.308392748184204C91.37736771789551,31.308392748184204,91.5120577178955,31.172012748184205,91.5120577178955,30.787002748184204L91.5120577178955,29.044880748184205C91.5120577178955,28.659035748184206,91.37736771789551,28.524322748184204,91.10633771789551,28.524322748184204L89.10500471789551,28.524322748184204ZM89.10500471789551,36.8790327481842C88.83562571789551,36.8790327481842,88.69845771789551,37.01457274818421,88.69845771789551,37.39875274818421L88.69845771789551,39.1184227481842C88.69845771789551,39.45852274818421,88.8116627178955,39.64062274818421,89.10500471789551,39.64062274818421L91.10633771789551,39.64062274818421C91.37736771789551,39.64062274818421,91.5120577178955,39.50342274818421,91.5120577178955,39.1184227481842L91.5120577178955,37.39875274818421C91.5120577178955,37.01457274818421,91.37736771789551,36.8790327481842,91.10633771789551,36.8790327481842L89.10500471789551,36.8790327481842Z" fill="#E73C1A" fill-opacity="1" style="mix-blend-mode:passthrough"/></g><g><path d="M105.39267816162109,24.96930551994592L102.82783816162109,24.96930551994592L102.82783816162109,42.85540551994592L105.39267816162109,42.85540551994592L105.39267816162109,24.96930551994592ZM98.7549381616211,24.96930551994592L97.83276816162109,39.88920551994592C97.81128816162109,40.16110551994592,97.7204081616211,40.31990551994592,97.5187681616211,40.31990551994592L97.3832481616211,40.31990551994592C97.2262481616211,40.31990551994592,97.1130481616211,40.16110551994592,97.0898981616211,39.88920551994592L96.03221816162109,24.96930551994592L93.4466781616211,24.96930551994592L94.5712881616211,40.34320551994592C94.7051381616211,41.90320551994592,95.5612081616211,42.85540551994592,97.29233816162109,42.85540551994592L97.6311381616211,42.85540551994592C99.31762816162109,42.85540551994592,100.1960181616211,41.88080551994592,100.33070816162109,40.34320551994592L101.54538816162109,24.96930551994592L98.7549381616211,24.96930551994592Z" fill="#E73C1A" fill-opacity="1" style="mix-blend-mode:passthrough"/></g><g><path d="M113.26345666015625,29.247878447265624L112.02646666015625,40.069858447265624C112.00497666015625,40.319258447265625,111.91491666015625,40.50145844726563,111.71163666015624,40.50145844726563L111.39763666015625,40.50145844726563C111.23981666015625,40.50145844726563,111.10512666015624,40.319258447265625,111.08115666015625,40.069858447265624L109.80036666015624,29.247878447265624L107.27928166015624,29.247878447265624L108.65261666015626,40.47645844726563C108.80879666015625,42.01655844726562,109.62023666015625,42.968658447265625,111.35053666015625,42.968658447265625L111.77856666015624,42.968658447265625C113.46673666015624,42.968658447265625,114.25420666015626,41.99485844726563,114.43434666015625,40.47645844726563L115.96303666015625,29.247878447265624L113.26345666015625,29.247878447265624ZM107.16607666015625,27.437568447265626L116.14399666015625,27.437568447265626L116.14399666015625,24.968658447265625L107.16607666015625,24.968658447265625L107.16607666015625,27.437568447265626Z" fill="#E73C1A" fill-opacity="1" style="mix-blend-mode:passthrough"/></g><g><path d="M129.25872229003906,42.85512948693605L129.25872229003906,24.96902948693605L126.69304229003906,24.96902948693605L126.69304229003906,33.09838948693605L124.96108229003906,33.09838948693605L124.96108229003906,35.563929486936054L126.69304229003906,35.563929486936054L126.69304229003906,42.85512948693605L129.25872229003906,42.85512948693605ZM117.76222229003906,42.719529486936054L124.21905229003906,42.719529486936054L124.21905229003906,40.25062948693605L120.32628229003906,40.25062948693605L120.32628229003906,35.47412948693605L124.24136229003906,35.47412948693605L124.24136229003906,33.00607948693605L120.32628229003906,33.00607948693605L120.32628229003906,28.77092948693605C120.32628229003906,28.001739486936053,120.59731229003906,27.66328948693605,121.36000229003906,27.66328948693605L124.33143229003906,27.66328948693605L124.33143229003906,25.171930486936052L120.86669229003907,25.171930486936052C118.68521729003906,25.171930486936052,117.76222307807507,26.00847948693605,117.76222307807507,28.568859486936052L117.76222229003906,42.719529486936054Z" fill="#E73C1A" fill-opacity="1" style="mix-blend-mode:passthrough"/></g><g><path d="M131.21312980957032,27.438251739389823L140.9091198095703,27.438251739389823L140.9091198095703,24.969351739389822L131.21312980957032,24.969351739389822L131.21312980957032,27.438251739389823ZM137.3543098095703,40.36405173938982L137.3543098095703,38.32755173938982C138.3681898095703,38.05565173938982,138.86150980957032,37.28475173938982,139.1779898095703,36.04075173938982L140.9999998095703,29.271031739389823L138.21035980957032,29.271031739389823L136.8147098095703,35.47445173938982C136.7469598095703,35.74635173938982,136.56682980957032,35.905251739389826,136.2536598095703,35.905251739389826L135.8479398095703,35.905251739389826C135.5769098095703,35.905251739389826,135.37529980957032,35.74635173938982,135.3075398095703,35.47445173938982L133.68876980957032,29.271031739389823L131.0999298095703,29.271031739389823L132.9236098095703,36.04075173938982C133.2376098095703,37.28475173938982,133.73256980957032,38.07725173938982,134.78942980957032,38.32755173938982L134.78942980957032,40.36405173938982L131.7527258095703,40.36405173938982L131.7527258095703,42.719851739389824L140.4364798095703,42.719851739389824L140.4364798095703,40.36405173938982L137.3543098095703,40.36405173938982Z" fill="#E73C1A" fill-opacity="1" style="mix-blend-mode:passthrough"/></g></g></g></svg>