<svg xmlns="http://www.w3.org/2000/svg" xmlns:xlink="http://www.w3.org/1999/xlink" fill="none" version="1.1" width="127.473876953125" height="28.861328125" viewBox="0 0 127.473876953125 28.861328125"><g transform="matrix(1.3333332538604736,0,0,-1.3333332538604736,0,67.34309666464105)"><g><g><path d="M3.866,50.207511230468754C5.99,50.207511230468754,7.024,49.14651123046875,7.024,46.994511230468746L7.024,41.08651123046875L9.528,41.08651123046875L9.528,50.37051123046875L12.632,50.37051123046875L12.632,28.86151123046875L9.528,28.86151123046875L9.528,38.11851123046875L7.024,38.11851123046875L7.024,28.86151123046875L3.921,28.86151123046875L3.921,37.384511230468746L0.082,37.384511230468746L0.082,40.35251123046875L3.921,40.35251123046875L3.921,45.76951123046875C3.921,46.856511230468755,3.402,47.238511230468745,2.369,47.238511230468745L0,47.238511230468745L0,50.207511230468754L3.866,50.207511230468754Z" fill="#FFFFFF" fill-opacity="1" style="mix-blend-mode:passthrough"/></g></g><g><path d="M29.2926162109375,28.86199951171875L26.1886162109375,28.86199951171875L26.1886162109375,50.37099951171875L29.2926162109375,50.37099951171875L29.2926162109375,28.86199951171875ZM20.4156162109375,47.238999511718745L18.9746062109375,47.238999511718745L18.9746062109375,31.83101951171875L20.4156162109375,31.83101951171875L20.4156162109375,47.238999511718745ZM24.6916162109375,28.86199951171875L14.8356323109375,28.86199951171875L14.8356323109375,31.830989511718748L15.9246262109375,31.830989511718748L15.9246262109375,47.238999511718745L14.7816162109375,47.238999511718745L14.7816162109375,50.207999511718754L24.6646162109375,50.207999511718754L24.6646162109375,47.238999511718745L23.466616210937502,47.238999511718745L23.466616210937502,31.830989511718748L24.6916162109375,31.830989511718748L24.6916162109375,28.86199951171875Z" fill="#FFFFFF" fill-opacity="1" style="mix-blend-mode:passthrough"/></g><g><g><path d="M32.80250109863281,33.13720703125C32.47650109863281,33.13720703125,32.31050109863281,33.29920703125,32.31050109863281,33.76320703125L32.31050109863281,35.858207031250004C32.31050109863281,36.24120703125,32.44750109863281,36.48520703125,32.80250109863281,36.48520703125L35.224501098632814,36.48520703125C35.55250109863281,36.48520703125,35.715501098632814,36.32120703125,35.715501098632814,35.858207031250004L35.715501098632814,33.76320703125C35.715501098632814,33.29920703125,35.55250109863281,33.13720703125,35.224501098632814,33.13720703125L32.80250109863281,33.13720703125ZM32.80250109863281,43.18420703125C32.47650109863281,43.18420703125,32.31050109863281,43.34720703125,32.31050109863281,43.80920703125L32.31050109863281,45.87720703125C32.31050109863281,46.28620703125,32.44750109863281,46.50520703125,32.80250109863281,46.50520703125L35.224501098632814,46.50520703125C35.55250109863281,46.50520703125,35.715501098632814,46.34020703125,35.715501098632814,45.87720703125L35.715501098632814,43.80920703125C35.715501098632814,43.34720703125,35.55250109863281,43.18420703125,35.224501098632814,43.18420703125L32.80250109863281,43.18420703125Z" fill="#FFFFFF" fill-opacity="1" style="mix-blend-mode:passthrough"/></g></g><g><path d="M52.5135185546875,28.86199951171875L49.4095185546875,28.86199951171875L49.4095185546875,50.37099951171875L52.5135185546875,50.37099951171875L52.5135185546875,28.86199951171875ZM44.4805285546875,28.86199951171875L43.3645285546875,46.80399951171875C43.3385285546875,47.13099951171875,43.2285485546875,47.32199951171875,42.9845285546875,47.32199951171875L42.8205285546875,47.32199951171875C42.6305285546875,47.32199951171875,42.4935285546875,47.13099951171875,42.4655185546875,46.80399951171875L41.1855185546875,28.86199951171875L38.0565185546875,28.86199951171875L39.4175085546875,47.34999951171875C39.5794985546875,49.225999511718754,40.6155085546875,50.37099951171875,42.7105085546875,50.37099951171875L43.1205185546875,50.37099951171875C45.1614985546875,50.37099951171875,46.2245185546875,49.19899951171875,46.3875085546875,47.34999951171875L47.8575085546875,28.86199951171875L44.4805285546875,28.86199951171875Z" fill="#FFFFFF" fill-opacity="1" style="mix-blend-mode:passthrough"/></g><g><g><path d="M62.03880529785156,34.007328125L60.54180529785156,47.021328125C60.515805297851564,47.321328125,60.40680529785156,47.540328125,60.16080529785156,47.540328125L59.780805297851565,47.540328125C59.58980529785156,47.540328125,59.426805297851566,47.321328125,59.39780529785156,47.021328125L57.847805297851565,34.007328125L54.79680529785156,34.007328125L56.45880529785156,47.510328125C56.64780529785156,49.362328125000005,57.62980529785156,50.507328125,59.72380529785156,50.507328125L60.24180529785156,50.507328125C62.28480529785156,50.507328125,63.237805297851565,49.336328125,63.45580529785156,47.510328125L65.30580529785156,34.007328125L62.03880529785156,34.007328125ZM54.65980529785156,31.830328125L65.52480529785156,31.830328125L65.52480529785156,28.861328125L54.65980529785156,28.861328125L54.65980529785156,31.830328125Z" fill="#FFFFFF" fill-opacity="1" style="mix-blend-mode:passthrough"/></g></g><g><g><path d="M81.39620007324218,50.370602783203125L81.39620007324218,28.861602783203125L78.29120007324218,28.861602783203125L78.29120007324218,38.63760278320312L76.19520007324219,38.63760278320312L76.19520007324219,41.602602783203125L78.29120007324218,41.602602783203125L78.29120007324218,50.370602783203125L81.39620007324218,50.370602783203125ZM67.48320007324219,50.20760278320313L75.29720007324218,50.20760278320313L75.29720007324218,47.23860278320312L70.58620007324218,47.23860278320312L70.58620007324218,41.49460278320312L75.32420007324218,41.49460278320312L75.32420007324218,38.526602783203124L70.58620007324218,38.526602783203124L70.58620007324218,33.43360278320313C70.58620007324218,32.50860278320312,70.91420007324218,32.10160278320313,71.83720007324219,32.10160278320313L75.43320007324219,32.10160278320313L75.43320007324219,29.105601783203124L71.24020007324219,29.105601783203124C68.60020007324219,29.105601783203124,67.48320102691619,30.111602783203125,67.48320102691619,33.190602783203126L67.48320007324219,50.20760278320313Z" fill="#FFFFFF" fill-opacity="1" style="mix-blend-mode:passthrough"/></g></g><g><path d="M83.76150471875,31.831020029296873L95.49551171875,31.831020029296873L95.49551171875,28.862030029296875L83.76150471875,28.862030029296875L83.76150471875,31.831020029296873ZM91.19351171875,47.37503002929688L91.19351171875,44.926030029296875C92.42050171875,44.59903002929688,93.01752171875,43.67203002929688,93.40051171875,42.176030029296875L95.60551171875,34.03503002929688L92.22949171875,34.03503002929688L90.54050171875,41.49503002929687C90.45849171875,41.822030029296876,90.24051171875,42.01303002929687,89.86151171875,42.01303002929687L89.37051171875,42.01303002929687C89.04251171875,42.01303002929687,88.79852171875,41.822030029296876,88.71652171875,41.49503002929687L86.75751171875,34.03503002929688L83.62451171875,34.03503002929688L85.83151171875,42.176030029296875C86.21152171875,43.67203002929688,86.81051171875,44.62503002929687,88.08951171875,44.926030029296875L88.08951171875,47.37503002929688L84.41452071875,47.37503002929688L84.41452071875,50.20803002929688L94.92351171875,50.20803002929688L94.92351171875,47.37503002929688L91.19351171875,47.37503002929688Z" fill="#FFFFFF" fill-opacity="1" style="mix-blend-mode:passthrough"/></g></g></svg>